<?xml version="1.0" encoding="utf-8"?>
<!-- Generator: Adobe Illustrator 22.0.0, SVG Export Plug-In . SVG Version: 6.00 Build 0)  -->
<svg version="1.1" id="Capa_1" xmlns="http://www.w3.org/2000/svg" xmlns:xlink="http://www.w3.org/1999/xlink" x="0px" y="0px"
	 viewBox="0 0 50 26" style="enable-background:new 0 0 50 26;" xml:space="preserve">
<style type="text/css">
	.st0{fill:#504E4F;}
	.st1{fill:#FF9900;}
</style>
<g id="Path">
	<g>
		<path class="st0" d="M8.8,9.7h2l-0.1-2.2H3.1c-0.1,0-0.2,0-0.3,0S2.4,7.6,1.9,7.8C1.4,8,1.1,8.5,1.1,9.5v7.9h2.2v-3.9h3.9v-2.2
			H3.3V9.7H8.8z"/>
	</g>
</g>
<g id="Path_5_">
	<g>
		<path class="st1" d="M18.7,7.5v7.7H17V9.4h-2.2v5.8h-1.7V7.5H11v7.8c0,1,0.3,1.6,0.8,1.8s0.9,0.3,0.9,0.3s0.2,0,0.3,0h5.8
			c0.1,0,0.2,0,0.3,0c0.1,0,0.4-0.1,0.9-0.3s0.8-0.8,0.8-1.8V7.5H18.7z"/>
	</g>
</g>
<g>
	<path d="M25.1,14.4c0,0.3,0.2,0.6,0.6,0.6c0.3,0,0.5-0.2,0.5-0.5c0-0.3-0.1-0.5-0.7-0.7c-1.1-0.4-1.3-0.8-1.3-1.4
		c0-0.6,0.4-1.3,1.4-1.3c1.2,0,1.5,0.8,1.5,1.4h-1c0-0.2,0-0.6-0.5-0.6c-0.3,0-0.4,0.2-0.4,0.4c0,0.3,0.2,0.4,0.7,0.6
		c0.9,0.3,1.3,0.7,1.3,1.4c0,0.9-0.5,1.4-1.6,1.4c-1.1,0-1.5-0.6-1.5-1.4H25.1z"/>
	<path d="M27.8,9.9h1v2.6c0.3-0.5,1.1-1.9,1.5-2.6h1.2l-1.5,2.3l1.5,3.5h-1.2L29.4,13l-0.5,0.7v1.9h-1V9.9z"/>
	<path d="M35,14.7c0,0.2,0,0.8,0,1h-0.9c0-0.1,0-0.3,0-0.4c-0.2,0.3-0.5,0.5-1,0.5c-0.9,0-1.2-0.7-1.2-1.3c0-0.9,0.6-1.5,1.8-1.5
		c0.2,0,0.3,0,0.4,0v-0.5c0-0.3,0-0.6-0.5-0.6c-0.4,0-0.5,0.3-0.5,0.6h-1c0-0.7,0.3-1.4,1.5-1.4c1,0,1.5,0.4,1.5,1.3V14.7z M34,13.8
		c-0.1,0-0.2,0-0.3,0c-0.6,0-0.8,0.3-0.8,0.6c0,0.3,0.1,0.6,0.5,0.6c0.5,0,0.6-0.4,0.6-1.1V13.8z"/>
	<path d="M39,14.4c0,0.6,0,1.1,0,1.3h-1c0-0.1,0-0.3,0-0.5c-0.2,0.4-0.5,0.6-1,0.6c-0.6,0-1.1-0.3-1.1-1.3v-3.2h1v3
		c0,0.4,0.1,0.7,0.5,0.7c0.4,0,0.6-0.2,0.6-0.9v-2.7h1V14.4z"/>
	<path d="M39.5,11.3h0.6v-1.1h1v1.1h0.7v0.8h-0.7v2.4c0,0.3,0,0.4,0.4,0.4c0.1,0,0.2,0,0.3,0v0.8c-0.2,0.1-0.5,0.1-0.6,0.1
		c-0.7,0-1-0.3-1-1.1v-2.6h-0.6V11.3z"/>
	<path d="M43.2,13.7c0,0.6,0.1,1.2,0.6,1.2c0.5,0,0.6-0.4,0.6-0.6h1c0,0.1-0.1,1.4-1.6,1.4c-1.4,0-1.6-1.2-1.6-2.3
		c0-1.4,0.5-2.3,1.7-2.3c1.3,0,1.6,1,1.6,2.1c0,0.2,0,0.4,0,0.4H43.2z M44.4,13c0-0.4-0.1-1-0.6-1c-0.6,0-0.6,0.7-0.6,1H44.4z"/>
	<path d="M47,13.7c0,0.6,0.1,1.2,0.6,1.2c0.5,0,0.6-0.4,0.6-0.6h1c0,0.1-0.1,1.4-1.6,1.4c-1.4,0-1.6-1.2-1.6-2.3
		c0-1.4,0.5-2.3,1.7-2.3c1.3,0,1.6,1,1.6,2.1c0,0.2,0,0.4,0,0.4H47z M48.2,13c0-0.4-0.1-1-0.6-1c-0.6,0-0.6,0.7-0.6,1H48.2z"/>
</g>
</svg>
