<?xml version="1.0" encoding="utf-8"?>
<!-- Generator: Adobe Illustrator 22.0.0, SVG Export Plug-In . SVG Version: 6.00 Build 0)  -->
<svg version="1.1" id="Capa_1" xmlns="http://www.w3.org/2000/svg" xmlns:xlink="http://www.w3.org/1999/xlink" x="0px" y="0px"
	 viewBox="0 0 131 26" style="enable-background:new 0 0 131 26;" xml:space="preserve">
<style type="text/css">
	.st0{fill:#FFFFFF;}
	.st1{fill:#FF9900;}
</style>
<g id="Path">
	<g>
		<path class="st0" d="M9.8,5.4H12L11.9,3H3.5C3.3,3,3.2,3,3.1,3C3,3.1,2.6,3.2,2,3.4C1.5,3.5,1.2,4.2,1.2,5.3V14h2.5V9.7H8V7.3H3.6
			V5.4H9.8z"/>
	</g>
</g>
<g id="Composite_Path">
	<g>
		<path class="st0" d="M23.2,3.3c-0.6-0.2-1-0.3-1-0.3c-0.1,0-0.2,0-0.3,0h-6.4c-0.1,0-0.3,0-0.4,0c-0.1,0-0.5,0.1-1,0.3
			c-0.8,0.2-1.1,0.9-1.1,2v6.4c0,1.1,0.3,1.8,0.9,2s0.9,0.3,1,0.3s0.2,0,0.4,0h6.4c0.1,0,0.3,0,0.4,0s0.5-0.1,1-0.3s0.9-0.8,0.9-2
			V5.3C24.1,4.2,23.8,3.5,23.2,3.3z M21.6,11.6h-6.1V5.4h6.1V11.6z"/>
	</g>
</g>
<g id="Composite_Path_1_">
	<g>
		<path class="st0" d="M35.8,8.4C35.9,8,36,7.7,36,7.4V5.3c0-0.7-0.2-1.3-0.6-1.7C35,3.2,34.4,3,33.7,3H25v11h2.5V9.7h4l1.9,4.3H36
			l-1.9-4.3c0.4,0,0.8-0.1,1.1-0.4S35.6,8.7,35.8,8.4z M33.5,7.3h-6.1V5.4h6.1V7.3z"/>
	</g>
</g>
<g id="Path_1_">
	<g>
		<polygon class="st0" points="36.5,3 36.5,5.4 40.8,5.4 40.8,14 43.2,14 43.2,5.4 47.5,5.4 47.5,3 		"/>
	</g>
</g>
<g id="Path_2_">
	<g>
		<path class="st0" d="M56.9,3v8.6h-6.1V3h-2.5v8.7c0,1.1,0.3,1.8,0.9,2s0.9,0.3,1,0.3s0.2,0,0.4,0H57c0.1,0,0.3,0,0.4,0
			s0.5-0.1,1-0.3s0.9-0.8,0.9-2V3H56.9z"/>
	</g>
</g>
<g id="Path_3_">
	<g>
		<path class="st0" d="M68.8,3v7.5L62.6,3c-0.2,0-0.3,0-0.4,0c-0.1,0-0.5,0.1-1,0.3c-0.6,0.2-0.9,0.8-0.9,1.9V14h2.5V6.5L69,14
			c1.1,0,1.8-0.3,2-1s0.3-1.1,0.3-1.3V3H68.8z"/>
	</g>
</g>
<g id="Path_4_">
	<g>
		<path class="st0" d="M83.1,5.4V3h-8.8c-1.1,0-1.8,0.3-2,0.9S72,4.8,72,4.9s0,0.2,0,0.4v6.4c0,1.1,0.3,1.8,0.9,2s0.9,0.3,1,0.3
			s0.2,0,0.4,0h8.8v-2.4h-8.6V9.7h8.6V7.3h-8.6V5.4H83.1z"/>
	</g>
</g>
<g id="Path_5_">
	<g>
		<path class="st1" d="M92.6,3v8.6h-1.9V5.2h-2.5v6.4h-1.9V3h-2.5v8.7c0,1.1,0.3,1.8,0.9,2s1,0.3,1,0.3s0.2,0,0.4,0h6.5
			c0.1,0,0.3,0,0.4,0s0.5-0.1,1-0.3c0.6-0.2,0.9-0.8,0.9-2V3H92.6z"/>
	</g>
</g>
<g id="Composite_Path_2_">
	<g>
		<path class="st1" d="M106.5,4.9c0-0.1-0.1-0.5-0.3-1c-0.2-0.6-0.8-0.9-2-0.9h-6.4c-0.1,0-0.3,0-0.4,0s-0.5,0.1-1,0.3
			c-0.6,0.2-0.9,0.8-0.9,1.9V14H98V9.7h6.1V14h2.5V5.3C106.6,5.2,106.5,5,106.5,4.9z M104.1,7.3H98V5.4h6.1V7.3z"/>
	</g>
</g>
<g id="Composite_Path_3_">
	<g>
		<path class="st1" d="M118.2,8.4c0.1-0.4,0.2-0.7,0.2-0.9V5.3c0-0.7-0.2-1.3-0.6-1.7s-1-0.6-1.7-0.6h-8.7v11h2.5V9.7h4l1.9,4.3h2.6
			l-1.9-4.3c0.4,0,0.8-0.1,1.1-0.4C117.9,9.1,118.1,8.7,118.2,8.4z M116,7.3h-6.1V5.4h6.1V7.3z"/>
	</g>
</g>
<g id="Path_6_">
	<g>
		<path class="st1" d="M130.3,5.4V3h-8.8c-1.1,0-1.8,0.3-2,0.9s-0.3,0.9-0.3,1s0,0.2,0,0.4v6.4c0,1.1,0.3,1.8,0.9,2s0.9,0.3,1,0.3
			s0.2,0,0.4,0h8.8v-2.4h-8.6V9.7h8.6V7.3h-8.6V5.4H130.3z"/>
	</g>
</g>
<g>
	<path class="st0" d="M96.5,22.1c0,0.4,0.2,0.9,0.8,0.9c0.5,0,0.7-0.3,0.7-0.7c0-0.4-0.2-0.7-0.9-1c-1.5-0.5-1.8-1.1-1.8-2
		c0-0.8,0.5-1.8,2-1.8c1.6,0,2,1.1,2,1.9H98c0-0.2,0-0.8-0.7-0.8c-0.4,0-0.6,0.2-0.6,0.6c0,0.4,0.2,0.6,1,0.8c1.3,0.5,1.8,1,1.8,2
		c0,1.2-0.8,1.9-2.2,1.9c-1.5,0-2.1-0.9-2.2-2H96.5z"/>
	<path class="st0" d="M100.3,15.9h1.4v3.6c0.5-0.7,1.5-2.6,2.1-3.6h1.7l-2.1,3.2l2.1,4.9h-1.6l-1.5-3.7l-0.7,1V24h-1.4V15.9z"/>
	<path class="st0" d="M110.3,22.6c0,0.3,0,1.1,0,1.4H109c0-0.1-0.1-0.4-0.1-0.6c-0.2,0.4-0.6,0.7-1.4,0.7c-1.2,0-1.7-1-1.7-1.8
		c0-1.3,0.9-2,2.4-2c0.2,0,0.4,0,0.5,0v-0.7c0-0.4,0-0.8-0.7-0.8c-0.6,0-0.7,0.4-0.7,0.8h-1.4c0-0.9,0.5-1.9,2.1-1.9
		c1.3,0,2,0.6,2,1.8V22.6z M108.9,21.3c-0.1,0-0.3,0-0.5,0c-0.8,0-1.1,0.4-1.1,0.9c0,0.4,0.2,0.8,0.7,0.8c0.7,0,0.9-0.5,0.9-1.5
		V21.3z"/>
	<path class="st0" d="M115.8,22.2c0,0.9,0,1.5,0,1.8h-1.4c0-0.2,0-0.5-0.1-0.7c-0.3,0.6-0.7,0.8-1.4,0.8c-0.9,0-1.6-0.4-1.6-1.9
		v-4.5h1.4v4.1c0,0.6,0.1,1,0.6,1c0.5,0,0.8-0.3,0.8-1.3v-3.8h1.4V22.2z"/>
	<path class="st0" d="M116.6,17.8h0.8v-1.6h1.4v1.6h1V19h-1v3.4c0,0.4,0.1,0.6,0.5,0.6c0.1,0,0.2,0,0.4,0V24
		c-0.3,0.1-0.7,0.1-0.9,0.1c-1,0-1.4-0.4-1.4-1.5V19h-0.8V17.8z"/>
	<path class="st0" d="M121.7,21.3c0,0.8,0.1,1.7,0.9,1.7c0.7,0,0.8-0.6,0.8-0.8h1.4c0,0.2-0.2,2-2.2,2c-2,0-2.3-1.7-2.3-3.3
		c0-2,0.7-3.2,2.3-3.2c1.8,0,2.2,1.3,2.2,3c0,0.2,0,0.5,0,0.6H121.7z M123.4,20.2c0-0.6-0.1-1.4-0.8-1.4c-0.8,0-0.9,0.9-0.9,1.4
		H123.4z"/>
	<path class="st0" d="M127,21.3c0,0.8,0.1,1.7,0.9,1.7c0.7,0,0.8-0.6,0.8-0.8h1.4c0,0.2-0.2,2-2.2,2c-2,0-2.3-1.7-2.3-3.3
		c0-2,0.7-3.2,2.3-3.2c1.8,0,2.2,1.3,2.2,3c0,0.2,0,0.5,0,0.6H127z M128.7,20.2c0-0.6-0.1-1.4-0.8-1.4c-0.8,0-0.9,0.9-0.9,1.4H128.7
		z"/>
</g>
</svg>
